<?xml version="1.0" encoding="utf-8"?>
<!-- Generator: Adobe Illustrator 23.0.3, SVG Export Plug-In . SVG Version: 6.00 Build 0)  -->
<svg version="1.1" xmlns="http://www.w3.org/2000/svg" xmlns:xlink="http://www.w3.org/1999/xlink" x="0px" y="0px"
	 viewBox="0 0 40 40" style="enable-background:new 0 0 40 40;" xml:space="preserve">
<style type="text/css">
	.st0{fill:#040000;}
	.st1{fill:#FFFFFF;}
	.st2{fill:none;stroke:#4775BA;stroke-miterlimit:10;}
</style>
<g id="Layer_1">
</g>
<g id="Layer_2">
</g>
<g id="Layer_3">
</g>
<g id="Layer_4">
	<g>
		<g>
			<path class="st0" d="M19.84,4.51c-4.96,0-8.99,4.03-8.99,8.99s4.03,8.99,8.99,8.99s8.99-4.03,8.99-8.99S24.8,4.51,19.84,4.51z
				 M20,20.24c-3.59,0-6.5-2.91-6.5-6.51c0-3.59,2.91-6.5,6.5-6.5s6.5,2.91,6.5,6.5C26.5,17.33,23.59,20.24,20,20.24z"/>
		</g>
		<path class="st0" d="M13.5,23.45c0,0-5.14,5.14-5.62,9.47h24.57c0,0-1.93-6.5-5.94-9.15l1.69-1.93c0,0,7.15,5.38,7.23,13.65H4.59
			c0,0,0.08-8.11,7.06-13.65L13.5,23.45z"/>
	</g>
</g>
<g id="Layer_5">
</g>
<g id="Layer_6">
</g>
<g id="Layer_7">
</g>
<g id="Layer_8">
</g>
<g id="Layer_9">
</g>
<g id="Layer_10">
</g>
<g id="Layer_11">
</g>
<g id="Layer_12">
</g>
<g id="Layer_13">
</g>
<g id="Layer_14">
</g>
<g id="Layer_15">
</g>
<g id="Layer_16">
</g>
<g id="Layer_17">
</g>
<g id="Layer_18">
</g>
</svg>
