<?xml version="1.0" encoding="utf-8"?>
<!-- Generator: Adobe Illustrator 23.0.3, SVG Export Plug-In . SVG Version: 6.00 Build 0)  -->
<svg version="1.1" xmlns="http://www.w3.org/2000/svg" xmlns:xlink="http://www.w3.org/1999/xlink" x="0px" y="0px"
	 viewBox="0 0 40 40" style="enable-background:new 0 0 40 40;" xml:space="preserve">
<style type="text/css">
	.st0{fill:#040000;}
	.st1{fill:#FFFFFF;}
	.st2{fill:none;stroke:#4775BA;stroke-miterlimit:10;}
</style>
<g id="Layer_1">
</g>
<g id="Layer_2">
</g>
<g id="Layer_3">
</g>
<g id="Layer_4">
</g>
<g id="Layer_5">
	<g>
		<path class="st0" d="M26.15,22.55c1.16-1.82,1.83-3.98,1.83-6.29c0-6.47-5.24-11.71-11.7-11.71c-6.47,0-11.71,5.24-11.71,11.71
			c0,6.46,5.24,11.7,11.71,11.7c2.24,0,4.33-0.63,6.1-1.72l9.42,9.21l3.62-3.62L26.15,22.55z M16.3,25.49
			c-5.05,0-9.14-4.09-9.14-9.14c0-5.05,4.09-9.14,9.14-9.14c5.05,0,9.14,4.09,9.14,9.14C25.43,21.4,21.34,25.49,16.3,25.49z"/>
	</g>
</g>
<g id="Layer_6">
</g>
<g id="Layer_7">
</g>
<g id="Layer_8">
</g>
<g id="Layer_9">
</g>
<g id="Layer_10">
</g>
<g id="Layer_11">
</g>
<g id="Layer_12">
</g>
<g id="Layer_13">
</g>
<g id="Layer_14">
</g>
<g id="Layer_15">
</g>
<g id="Layer_16">
</g>
<g id="Layer_17">
</g>
<g id="Layer_18">
</g>
</svg>
