<?xml version="1.0" encoding="utf-8"?>
<!-- Generator: Adobe Illustrator 23.0.3, SVG Export Plug-In . SVG Version: 6.00 Build 0)  -->
<svg version="1.1" xmlns="http://www.w3.org/2000/svg" xmlns:xlink="http://www.w3.org/1999/xlink" x="0px" y="0px"
	 viewBox="0 0 40 40" style="enable-background:new 0 0 40 40;" xml:space="preserve">
<style type="text/css">
	.st0{fill:#040000;}
	.st1{fill:#FFFFFF;}
	.st2{fill:none;stroke:#4775BA;stroke-miterlimit:10;}
</style>
<g id="Layer_1">
</g>
<g id="Layer_2">
</g>
<g id="Layer_3">
</g>
<g id="Layer_4">
</g>
<g id="Layer_5">
</g>
<g id="Layer_6">
</g>
<g id="Layer_7">
</g>
<g id="Layer_8">
</g>
<g id="Layer_9">
</g>
<g id="Layer_10">
</g>
<g id="Layer_11">
</g>
<g id="Layer_12">
</g>
<g id="Layer_13">
</g>
<g id="Layer_14">
</g>
<g id="Layer_15">
</g>
<g id="Layer_16">
	<path class="st0" d="M19.31,14.97c0,0,0.5-12,11-5.13l3-2.13l-1.75,3.63l3-0.62l-3.13,3c0,0,1.13,14.63-12.13,18.13
		c0,0-9.25,1.87-13.75-2.13c0,0,5.62-0.63,7.62-2.88c0,0-2.88-0.38-5.25-3.5l2.62-0.88c0,0-3.12-0.63-5-5c0,0-1-0.5,2.87-0.63
		c0,0-3.37-3-1.37-8.25C7.06,8.59,13.43,15.97,19.31,14.97z"/>
</g>
<g id="Layer_17">
</g>
<g id="Layer_18">
</g>
</svg>
