<?xml version="1.0" encoding="utf-8"?>
<!-- Generator: Adobe Illustrator 23.0.3, SVG Export Plug-In . SVG Version: 6.00 Build 0)  -->
<svg version="1.1" xmlns="http://www.w3.org/2000/svg" xmlns:xlink="http://www.w3.org/1999/xlink" x="0px" y="0px"
	 viewBox="0 0 40 40" style="enable-background:new 0 0 40 40;" xml:space="preserve">
<style type="text/css">
	.st0{fill:#040000;}
	.st1{fill:none;}
	.st2{fill:#FFFFFF;}
	.st3{fill:none;stroke:#FFFFFF;stroke-miterlimit:10;}
	.st4{fill:#4775BA;}
</style>
<g id="Layer_1">
</g>
<g id="Layer_2">
</g>
<g id="Layer_3">
</g>
<g id="Layer_4">
</g>
<g id="Layer_5">
</g>
<g id="Layer_6">
	<rect class="st2" width="40" height="40"/>
	<g>
		<circle class="st4" cx="21.64" cy="9.31" r="3"/>
		<path class="st4" d="M20.64,12.12l-0.05,2.45h-1.95v7.31h-4.12l-5,5.94c0,0-0.81,3.19,2.19,2l3.88-4.31h6.44
			c0,0,3.31,0.13,3.5-2.81v-7.94l-1.75-0.06v-4.06L20.64,12.12z"/>
		<path class="st4" d="M26.77,11.7v13.12c0,0,0.56,2.81-2.94,2.81h-6l-4.31,4.13c0,0-0.81,2.75,2,1.69l2.69-2.69l7.94-0.13
			c0,0,4.44-0.25,4.44-4.31V11.7H26.77z"/>
	</g>
</g>
<g id="Layer_7">
</g>
<g id="Layer_8">
</g>
<g id="Layer_9">
</g>
</svg>
