<?xml version="1.0" encoding="utf-8"?>
<!-- Generator: Adobe Illustrator 24.0.1, SVG Export Plug-In . SVG Version: 6.00 Build 0)  -->
<svg version="1.1" id="Layer_1" xmlns="http://www.w3.org/2000/svg" xmlns:xlink="http://www.w3.org/1999/xlink" x="0px" y="0px"
	 viewBox="0 0 100 100" style="enable-background:new 0 0 100 100;" xml:space="preserve">
<style type="text/css">
	.st0{fill:#FFFFFF;}
	.st1{fill:#ED1A2D;}
	.st2{fill:#00529B;}
</style>
<g>
	<path class="st0" d="M0.7,26.9c0,0-16.3,1.21-25.09,0.4c0,0-1.05-0.28-1.33,0.94c0,0-0.58,0.92,0.35,1.56
		c0.92,0.63,3.58,2.2,3.58,7.97c0,5.79,0,11.16,0,11.16s0.52,6.13-3.69,8.44c0,0-0.87,0.3-0.42,1.51c0,0,0.07,1.09,1.28,0.92
		c1.21-0.18,8.03-0.69,17.4-0.05c0,0,0.81,0.05,1.04-0.47c0.23-0.53,0.29-0.58,0.29-0.58s0.81-0.82-0.4-1.62
		c-1.22-0.8-3.25-2.02-3.41-7.17c-0.17-5.15,0-5.27,0-5.27h0.75c0,0,2.61-0.23,4.34,3.7c0,0,3.36,8.1,3.88,9.08
		c0.51,0.98,1.5,3.06,5.14,2.72c3.64-0.35,20.64-1.56,38.67,0.05c0,0,1.97,0.29,2.72-1.62c0,0,3.13-8.39,3.88-9.72
		c0,0,6.58-0.18,10.17-0.12c0,0,1.33,2.25,1.33,4.98c0,2.71-2.37,3.35-2.37,3.35s-0.99,0.41-0.52,1.62c0,0,0.17,1.16,1.33,1.05
		c1.16-0.12,11.51-1.1,27.12-0.12c0,0,1.05,0.41,1.39-0.98c0,0,0.63-1.1-0.46-1.62c0,0-4.1-0.92-4.1-7.46s0.05-11.16,0.05-11.16
		s3.12,4.45,6.82,11.09c3.7,6.65,5.67,9.48,5.67,9.48s1.85,3.58,5.49,1.68c3.64-1.91,7.57-4.1,9.83-5.67c0,0,0.86-0.4,0.4-1.5
		l-0.35-0.7c0,0-0.05-0.4-1.27-0.51c0,0-2.71,0.64-2.77-3.24c-0.06-3.88-0.24-9.37,0-14.98c0,0,0.11-3.47,3.28-4.45
		c0,0,1.16-0.12,0.64-1.51l-0.35-0.7c0,0,0-0.58-0.8-0.46c-0.81,0.12-5.33,0.52-10.12,0.12c0,0-1.04,0-1.16,1.16
		c0,0-0.29,1.03,0.52,1.38c0.81,0.34,3.64,1.38,3.81,5.84c0.18,4.45,0.24,10.64,0.24,10.64s-6.59-9.72-10.82-17.18
		c0,0-0.69-2.03-3.18-1.85c-2.48,0.17-8.44,0.47-12.78,0.06c0,0-1.22-0.17-1.39,1.21c0,0-0.35,1.22,0.7,1.73c0,0,3.46,2.2,3.46,2.94
		c0,0.75-0.06,16.14-0.06,16.14s0.29,6.3-1.39,5.49c0,0-0.98,0.64-3.35-3.7c-2.37-4.34-5.43-10.52-10.41-22.55
		c0,0-1.04-3.35-3.18-3.35c0,0-1.28,0.05-2.6,0.8c-1.33,0.75-5.55,3.12-9.94,4.4c0,0-1.16,0.35-0.81,1.5c0,0-0.18,0.87,1.1,1.33
		c1.27,0.47,2.37,0.98,2.72,1.62c0,0-1.34,4.28-3.76,8.67c-2.43,4.4-5.55,11.68-14.52,11.68h-3.52c0,0-0.92,0.12-0.92-1.16
		c0-1.27,0-9.31,0-9.31h2.31c0,0,3.76-0.8,5.56,4.05c0,0,0.35,1.51,1.62,0.93c0,0,1.44-0.18,1.33-1.62
		c-0.12-1.45-0.23-5.38,0.06-8.85c0,0,0.12-1.03-1.03-1.27c0,0-0.92-0.46-1.62,0.3c-0.7,0.75-2.14,2.53-5.43,2.53
		c-3.3,0-2.72,0-2.72,0v-8.66c0,0-0.06-0.58,0.35-0.65c0.4-0.05,5.43-1.27,8.38,1.1c2.95,2.37,3.12,3.36,3.76,4.22
		c0,0,0.58,1.45,2.08,0.46c0,0,1.15-0.17,0.58-1.97c-0.58-1.79-0.76-2.43-1.74-6.93c0,0-0.18-1.92-2.14-1.74
		c-1.97,0.17-14.28,1.62-25.85,0.69c0,0-1.22-0.28-1.44,0.99c0,0-0.52,0.87,0.46,1.68c0,0,3.41,1.56,3.41,7.57
		c0,6.01,0,10.05,0,10.05s0.59,7.99-2.25,7.99c0,0-1.22,0.52-3.29-3.58c-2.09-4.1-2.2-4.22-2.2-4.22s-1.68-5.38-8.9-5.6
		c0,0,10-1.68,9.07-9.2c0,0-0.17-5.73-7.68-5.96H0.7z M-9.76,41.07V35.4c0,0,0.06-4.22,3.41-4.22c3.35,0,2.93,4.1,2.95,4.63
		C-3.36,36.33-3.57,41.07-9.76,41.07z M51.41,44.88c0,0,2.14-5.03,3.07-6.47c0,0,2.6,3.58,3.52,6.53
		C58,44.94,55.05,45.41,51.41,44.88z"/>
	<path class="st0" d="M163.77,47.28c0,0,0.23,7.58-2.6,7.06c0,0-0.98,0.63-3.35-3.7c-2.37-4.35-5.43-10.53-10.4-22.55
		c0,0-1.04-3.36-3.18-3.36c0,0-1.27,0.06-2.6,0.81c-1.33,0.75-5.56,3.12-9.95,4.4c0,0-1.16,0.35-0.8,1.5c0,0-0.18,0.87,1.09,1.34
		c1.28,0.46,2.38,0.98,2.72,1.62c0,0-1.33,4.28-3.76,8.67c-2.43,4.38-4.56,10.81-10.28,13.7c0,0-1.11,0.23-0.75,1.56
		c0.4,1.5,1.15,1.1,1.15,1.1c6.65-0.68,8.67-0.11,10.17,0c1.5,0.12,1.28-1.1,1.28-1.1c0.4-0.75-0.12-1.21-0.12-1.21l-0.64-0.82
		c0,0-2.49-0.64,1.04-7.75c0,0,6.59-0.16,10.18-0.11c0,0,1.33,2.25,1.33,4.97c0,2.72-2.37,3.36-2.37,3.36s-0.98,0.41-0.52,1.62
		c0,0,0.18,1.17,1.33,1.04c1.15-0.11,20.35-0.92,35.96,0.05c0,0,1.09,0.07,1.38-0.92c0,0,0.64-1.21-0.46-1.9c0,0-3.07-1.4-3.3-6.31
		c-0.23-4.92-0.17-14.23-0.17-14.23s-0.23-5.19,3.06-6.82c0,0,0.87-0.4,0.41-1.56c0,0-0.23-1.1-1.27-0.98
		c-1.04,0.11-11.97,0.69-17.12,0.05c0,0-1.15-0.05-1.38,0.93c0,0-0.58,0.92,0.4,1.68c0.98,0.75,3.53,2.49,3.53,7.86
		C163.77,42.66,163.77,47.28,163.77,47.28z M137.59,37.92c3.12,4.45,3.53,6.53,3.53,6.53c-2.49,0.4-6.59-0.06-6.59-0.06
		C135.74,41.16,137.59,37.92,137.59,37.92z"/>
	<path class="st0" d="M209.8,26.35c0,0-12.72,1.5-24.51,0.34c0,0-1.51-0.4-1.68,1.16c0,0-0.12,1.04,0.52,1.44
		c0.64,0.4,3.24,1.97,3.41,7.4c0.18,5.43,0.29,3.86,0.18,11.27c0,0,0.47,7.11-3.58,8.84c0,0-1.04,0.24-0.46,1.73
		c0,0,0.35,1.16,1.33,0.76c0,0,9.48-0.64,17.69,0.06c0,0,0.92,0.33,1.22-0.87c0,0,0.75-0.82-0.41-1.69c-1.16-0.86-3.24-2.37-3.48-6
		c-0.22-3.64-0.17-6.54-0.17-6.54h0.81c0,0,2.72-0.35,4.57,3.93c1.85,4.28,3.12,7.4,3.12,7.4s1.22,3.4,3.18,4.51
		c0,0,0.8,0.75,3.81,0.4c0,0,4.92-0.3,9.76-2.55c0,0,1.1-0.23,0.76-1.51c0,0,0.23-0.98-1.16-1.27c-1.39-0.29-2.42-1.62-3.41-3.58
		c-0.99-1.96-2.49-4.85-2.49-4.85s-2.02-5.03-8.62-5.09c0,0,9.08-1.56,9.08-8.38c0-6.82-8.1-6.93-8.1-6.93H209.8z M199.85,40.75
		v-5.66c0,0,0.12-4.23,3.3-4.23c3.18,0,3.24,3.58,3.07,4.75C206.06,36.77,205.75,40.75,199.85,40.75z"/>
	<path class="st0" d="M-24.43,43.76c0,11.53-9.35,20.87-20.86,20.87c-11.52,0-20.87-9.34-20.87-20.87
		c0-11.52,9.34-20.86,20.87-20.86C-33.78,22.9-24.43,32.24-24.43,43.76z"/>
	<path class="st1" d="M-37.06,32.21c5.83,1.8,10.08,7.23,10.08,13.66c0,0.94-0.09,1.85-0.26,2.74l-0.02,0.13
		c-0.44,2.52-1.47,4.84-2.93,6.83l-0.02,0.03c2.56-3.26,4.09-7.37,4.09-11.84c0-10.59-8.59-19.17-19.17-19.17
		c-4.83,0-9.24,1.78-12.6,4.72l-0.04,0.04c-2.65,2.44-4.32,5.94-4.32,9.82c0,1.61,0.29,3.16,0.81,4.59l0.03,0.07
		c1.33,2.92,4.27,4.96,7.7,4.96c4.67,0,8.45-3.79,8.45-8.46l-0.02-3.64c0-1.67,0.94-3.13,2.31-3.87l0.02-0.01
		c1.07-0.59,2.3-0.93,3.62-0.93c0.79,0,1.56,0.12,2.28,0.35H-37.06z"/>
	<path class="st0" d="M-59.98,56.09c3.52,4.18,8.79,6.85,14.68,6.85c4.82,0,9.24-1.78,12.6-4.72l0.04-0.03
		c2.65-2.44,4.32-5.94,4.32-9.83c0-1.6-0.28-3.15-0.8-4.57l-0.04-0.07c-1.33-2.92-4.28-4.95-7.7-4.95c-4.67,0-8.46,3.78-8.46,8.45
		l0.02,3.64c0,1.66-0.92,3.12-2.31,3.88l-0.01,0.01c-1.07,0.59-2.31,0.93-3.63,0.93c-0.79,0-1.56-0.12-2.27-0.36l-0.01-0.02
		c-5.84-1.79-10.08-7.22-10.08-13.64c0-0.95,0.09-1.86,0.26-2.74l0.03-0.12c0.44-2.53,1.47-4.84,2.93-6.82l0.03-0.04
		c-2.56,3.26-4.1,7.37-4.1,11.84c0,3.08,0.73,5.99,2.03,8.57l-0.16,0.11c0,0-0.75,0.58-2.26-1.15c-1.5-1.73-10.34-12.43-10.34-12.43
		s5.6-6.01,11.09-8.44c0,0,1.45-0.46,1.1-1.73l-0.23-0.75c0,0-0.05-0.81-1.33-0.65c-1.27,0.18-7.28,0.65-13.3,0.07
		c0,0-0.92,0-1.27,0.75c0,0-0.58,0.98,0,1.57c0.58,0.57,2.65,2.02,2.65,3.98c0,0,0.47,1.45-2.71,3.77c-3.18,2.31-5.15,3.81-6.48,4.5
		l0.06-5.43c0,0-0.17-4.56,3.12-6.7c0,0,0.81-0.35,0.52-1.1l-0.24-0.58c0,0-0.17-0.93-1.15-0.81c0,0-5.73,0.65-17.11,0.12
		c0,0-0.75-0.05-1.05,0.53l-0.23,0.46c0,0-0.4,1.04,0.23,1.51c0.64,0.45,3.3,2.02,3.41,6.82c0,0,0.29,9.08-0.11,12.6
		c-0.41,3.53-0.7,5.55-3.53,8.03c0,0-0.76,0.58-0.4,1.45l0.4,0.75c0,0,0.28,0.58,1.27,0.47c0.98-0.12,8.09-0.82,17.11-0.12
		c0,0,0.64,0.23,0.93-0.4l0.4-0.82c0,0,0.47-0.82-0.4-1.44c-0.87-0.64-3.18-2.49-3.24-6.08c-0.06-3.58-0.06-5.84-0.06-5.84
		s1.56,0.64,9.89,12.95c0,0,2.95,5.32,9.19,2.02c0,0,4.57-2.48,6.48-4.11L-59.98,56.09z"/>
	<path class="st2" d="M-53.74,55.52c-5.89-1.8-10.17-7.24-10.17-13.67c0-0.93,0.09-1.86,0.26-2.74l0.02-0.12
		c0.44-2.53,1.48-4.85,2.95-6.83l0.02-0.03c-2.58,3.27-4.13,7.39-4.13,11.86c0,10.6,8.66,19.2,19.35,19.2
		c4.87,0,9.32-1.79,12.72-4.73l0.04-0.04c2.69-2.43,4.36-5.94,4.36-9.83c0-1.62-0.29-3.16-0.82-4.59l-0.03-0.06
		c-1.34-2.93-4.31-4.96-7.77-4.96c-4.7,0-8.53,3.79-8.53,8.47l0.02,3.64c0,1.68-0.94,3.13-2.33,3.89l-0.02,0.01
		c-1.08,0.6-2.32,0.92-3.65,0.92c-0.8,0-1.57-0.11-2.3-0.36H-53.74z"/>
</g>
</svg>
