<?xml version="1.0" encoding="utf-8"?>
<!-- Generator: Adobe Illustrator 24.0.1, SVG Export Plug-In . SVG Version: 6.00 Build 0)  -->
<svg version="1.1" id="레이어_1" xmlns="http://www.w3.org/2000/svg" xmlns:xlink="http://www.w3.org/1999/xlink" x="0px"
	 y="0px" viewBox="0 0 350 50" style="enable-background:new 0 0 350 50;" xml:space="preserve">
<style type="text/css">
	.st0{fill:#FFFFFF;}
	.st1{fill:#ED1A2D;}
	.st2{fill:#00529B;}
</style>
<g>
	<path class="st0" d="M113.7,7.8c0,0-16.3,1.2-25.1,0.4c0,0-1.1-0.3-1.3,0.9c0,0-0.6,0.9,0.3,1.6c0.9,0.6,3.6,2.2,3.6,8
		c0,5.8,0,11.2,0,11.2s0.5,6.1-3.7,8.4c0,0-0.9,0.3-0.4,1.5c0,0,0.1,1.1,1.3,0.9c1.2-0.2,8-0.7,17.4,0c0,0,0.8,0,1-0.5
		c0.2-0.5,0.3-0.6,0.3-0.6s0.8-0.8-0.4-1.6c-1.2-0.8-3.3-2-3.4-7.2c-0.2-5.2,0-5.3,0-5.3h0.8c0,0,2.6-0.2,4.3,3.7
		c0,0,3.4,8.1,3.9,9.1c0.5,1,1.5,3.1,5.1,2.7c3.6-0.3,20.6-1.6,38.7,0c0,0,2,0.3,2.7-1.6c0,0,3.1-8.4,3.9-9.7c0,0,6.6-0.2,10.2-0.1
		c0,0,1.3,2.3,1.3,5c0,2.7-2.4,3.3-2.4,3.3s-1,0.4-0.5,1.6c0,0,0.2,1.2,1.3,1c1.2-0.1,11.5-1.1,27.1-0.1c0,0,1.1,0.4,1.4-1
		c0,0,0.6-1.1-0.5-1.6c0,0-4.1-0.9-4.1-7.5s0.1-11.2,0.1-11.2s3.1,4.5,6.8,11.1c3.7,6.6,5.7,9.5,5.7,9.5s1.9,3.6,5.5,1.7
		c3.6-1.9,7.6-4.1,9.8-5.7c0,0,0.9-0.4,0.4-1.5l-0.3-0.7c0,0-0.1-0.4-1.3-0.5c0,0-2.7,0.6-2.8-3.2s-0.2-9.4,0-15
		c0,0,0.1-3.5,3.3-4.5c0,0,1.2-0.1,0.6-1.5L224,8.2c0,0,0-0.6-0.8-0.5c-0.8,0.1-5.3,0.5-10.1,0.1c0,0-1,0-1.2,1.2c0,0-0.3,1,0.5,1.4
		c0.8,0.3,3.6,1.4,3.8,5.8c0.2,4.5,0.2,10.6,0.2,10.6s-6.6-9.7-10.8-17.2c0,0-0.7-2-3.2-1.9c-2.5,0.2-8.4,0.5-12.8,0.1
		c0,0-1.2-0.2-1.4,1.2c0,0-0.4,1.2,0.7,1.7c0,0,3.5,2.2,3.5,2.9c0,0.8-0.1,16.1-0.1,16.1s0.3,6.3-1.4,5.5c0,0-1,0.6-3.3-3.7
		c-2.4-4.3-5.4-10.5-10.4-22.5c0,0-1-3.4-3.2-3.4c0,0-1.3,0-2.6,0.8c-1.3,0.8-5.6,3.1-9.9,4.4c0,0-1.2,0.4-0.8,1.5
		c0,0-0.2,0.9,1.1,1.3c1.3,0.5,2.4,1,2.7,1.6c0,0-1.3,4.3-3.8,8.7c-2.4,4.4-5.6,11.7-14.5,11.7h-3.5c0,0-0.9,0.1-0.9-1.2
		c0-1.3,0-9.3,0-9.3h2.3c0,0,3.8-0.8,5.6,4c0,0,0.3,1.5,1.6,0.9c0,0,1.4-0.2,1.3-1.6c-0.1-1.5-0.2-5.4,0.1-8.8c0,0,0.1-1-1-1.3
		c0,0-0.9-0.5-1.6,0.3c-0.7,0.8-2.1,2.5-5.4,2.5c-3.3,0-2.7,0-2.7,0v-8.7c0,0-0.1-0.6,0.3-0.6c0.4,0,5.4-1.3,8.4,1.1
		s3.1,3.4,3.8,4.2c0,0,0.6,1.5,2.1,0.5c0,0,1.2-0.2,0.6-2c-0.6-1.8-0.8-2.4-1.7-6.9c0,0-0.2-1.9-2.1-1.7c-2,0.2-14.3,1.6-25.9,0.7
		c0,0-1.2-0.3-1.4,1c0,0-0.5,0.9,0.5,1.7c0,0,3.4,1.6,3.4,7.6s0,10,0,10s0.6,8-2.2,8c0,0-1.2,0.5-3.3-3.6c-2.1-4.1-2.2-4.2-2.2-4.2
		s-1.7-5.4-8.9-5.6c0,0,10-1.7,9.1-9.2c0,0-0.2-5.7-7.7-6L113.7,7.8L113.7,7.8z M103.2,21.9v-5.7c0,0,0.1-4.2,3.4-4.2
		c3.4,0,2.9,4.1,3,4.6C109.6,17.2,109.4,21.9,103.2,21.9z M164.4,25.7c0,0,2.1-5,3.1-6.5c0,0,2.6,3.6,3.5,6.5
		C171,25.8,168,26.3,164.4,25.7z"/>
	<path class="st0" d="M276.8,28.1c0,0,0.2,7.6-2.6,7.1c0,0-1,0.6-3.4-3.7c-2.4-4.3-5.4-10.5-10.4-22.5c0,0-1-3.4-3.2-3.4
		c0,0-1.3,0.1-2.6,0.8s-5.6,3.1-9.9,4.4c0,0-1.2,0.4-0.8,1.5c0,0-0.2,0.9,1.1,1.3c1.3,0.5,2.4,1,2.7,1.6c0,0-1.3,4.3-3.8,8.7
		c-2.4,4.4-4.6,10.8-10.3,13.7c0,0-1.1,0.2-0.8,1.6c0.4,1.5,1.1,1.1,1.1,1.1c6.7-0.7,8.7-0.1,10.2,0c1.5,0.1,1.3-1.1,1.3-1.1
		c0.4-0.8-0.1-1.2-0.1-1.2l-0.6-0.8c0,0-2.5-0.6,1-7.7c0,0,6.6-0.2,10.2-0.1c0,0,1.3,2.3,1.3,5s-2.4,3.4-2.4,3.4s-1,0.4-0.5,1.6
		c0,0,0.2,1.2,1.3,1c1.1-0.1,20.4-0.9,36,0c0,0,1.1,0.1,1.4-0.9c0,0,0.6-1.2-0.5-1.9c0,0-3.1-1.4-3.3-6.3
		c-0.2-4.9-0.2-14.2-0.2-14.2s-0.2-5.2,3.1-6.8c0,0,0.9-0.4,0.4-1.6c0,0-0.2-1.1-1.3-1c-1,0.1-12,0.7-17.1,0c0,0-1.1,0-1.4,0.9
		c0,0-0.6,0.9,0.4,1.7c1,0.8,3.5,2.5,3.5,7.9C276.8,23.5,276.8,28.1,276.8,28.1z M250.6,18.8c3.1,4.5,3.5,6.5,3.5,6.5
		c-2.5,0.4-6.6-0.1-6.6-0.1C248.7,22,250.6,18.8,250.6,18.8z"/>
	<path class="st0" d="M322.8,7.2c0,0-12.7,1.5-24.5,0.3c0,0-1.5-0.4-1.7,1.2c0,0-0.1,1,0.5,1.4c0.6,0.4,3.2,2,3.4,7.4
		c0.2,5.4,0.3,3.9,0.2,11.3c0,0,0.5,7.1-3.6,8.8c0,0-1,0.2-0.5,1.7c0,0,0.4,1.2,1.3,0.8c0,0,9.5-0.6,17.7,0.1c0,0,0.9,0.3,1.2-0.9
		c0,0,0.8-0.8-0.4-1.7c-1.2-0.9-3.2-2.4-3.5-6c-0.2-3.6-0.2-6.5-0.2-6.5h0.8c0,0,2.7-0.3,4.6,3.9s3.1,7.4,3.1,7.4s1.2,3.4,3.2,4.5
		c0,0,0.8,0.8,3.8,0.4c0,0,4.9-0.3,9.8-2.5c0,0,1.1-0.2,0.8-1.5c0,0,0.2-1-1.2-1.3c-1.4-0.3-2.4-1.6-3.4-3.6c-1-2-2.5-4.8-2.5-4.8
		s-2-5-8.6-5.1c0,0,9.1-1.6,9.1-8.4s-8.1-6.9-8.1-6.9L322.8,7.2L322.8,7.2z M312.8,21.6v-5.7c0,0,0.1-4.2,3.3-4.2
		c3.2,0,3.2,3.6,3.1,4.8C319,17.6,318.7,21.6,312.8,21.6z"/>
	<path class="st0" d="M88.6,24.6c0,11.5-9.3,20.9-20.9,20.9c-11.5,0-20.9-9.3-20.9-20.9c0-11.5,9.3-20.9,20.9-20.9
		C79.2,3.8,88.6,13.1,88.6,24.6z"/>
	<path class="st1" d="M75.9,13.1C81.8,14.9,86,20.3,86,26.7c0,0.9-0.1,1.8-0.3,2.7l0,0.1c-0.4,2.5-1.5,4.8-2.9,6.8l0,0
		c2.6-3.3,4.1-7.4,4.1-11.8c0-10.6-8.6-19.2-19.2-19.2c-4.8,0-9.2,1.8-12.6,4.7l0,0c-2.7,2.4-4.3,5.9-4.3,9.8c0,1.6,0.3,3.2,0.8,4.6
		l0,0.1c1.3,2.9,4.3,5,7.7,5c4.7,0,8.5-3.8,8.5-8.5l0-3.6c0-1.7,0.9-3.1,2.3-3.9l0,0c1.1-0.6,2.3-0.9,3.6-0.9
		C74.4,12.7,75.2,12.9,75.9,13.1L75.9,13.1L75.9,13.1z"/>
	<path class="st0" d="M53,36.9c3.5,4.2,8.8,6.8,14.7,6.8c4.8,0,9.2-1.8,12.6-4.7l0,0c2.6-2.4,4.3-5.9,4.3-9.8c0-1.6-0.3-3.2-0.8-4.6
		l0-0.1c-1.3-2.9-4.3-5-7.7-5c-4.7,0-8.5,3.8-8.5,8.5l0,3.6c0,1.7-0.9,3.1-2.3,3.9l0,0c-1.1,0.6-2.3,0.9-3.6,0.9
		c-0.8,0-1.6-0.1-2.3-0.4l0,0c-5.8-1.8-10.1-7.2-10.1-13.6c0-1,0.1-1.9,0.3-2.7l0-0.1c0.4-2.5,1.5-4.8,2.9-6.8l0,0
		c-2.6,3.3-4.1,7.4-4.1,11.8c0,3.1,0.7,6,2,8.6l-0.2,0.1c0,0-0.8,0.6-2.3-1.2c-1.5-1.7-10.3-12.4-10.3-12.4s5.6-6,11.1-8.4
		c0,0,1.5-0.5,1.1-1.7l-0.2-0.8c0,0,0-0.8-1.3-0.6c-1.3,0.2-7.3,0.6-13.3,0.1c0,0-0.9,0-1.3,0.8c0,0-0.6,1,0,1.6
		c0.6,0.6,2.7,2,2.7,4c0,0,0.5,1.5-2.7,3.8c-3.2,2.3-5.1,3.8-6.5,4.5l0.1-5.4c0,0-0.2-4.6,3.1-6.7c0,0,0.8-0.4,0.5-1.1L30.8,9
		c0,0-0.2-0.9-1.2-0.8c0,0-5.7,0.6-17.1,0.1c0,0-0.8,0-1.1,0.5l-0.2,0.5c0,0-0.4,1,0.2,1.5c0.6,0.5,3.3,2,3.4,6.8
		c0,0,0.3,9.1-0.1,12.6c-0.4,3.5-0.7,5.5-3.5,8c0,0-0.8,0.6-0.4,1.5l0.4,0.8c0,0,0.3,0.6,1.3,0.5c1-0.1,8.1-0.8,17.1-0.1
		c0,0,0.6,0.2,0.9-0.4l0.4-0.8c0,0,0.5-0.8-0.4-1.4c-0.9-0.6-3.2-2.5-3.2-6.1c-0.1-3.6-0.1-5.8-0.1-5.8s1.6,0.6,9.9,12.9
		c0,0,2.9,5.3,9.2,2c0,0,4.6-2.5,6.5-4.1L53,36.9z"/>
	<path class="st2" d="M59.2,36.4c-5.9-1.8-10.2-7.2-10.2-13.7c0-0.9,0.1-1.9,0.3-2.7l0-0.1c0.4-2.5,1.5-4.8,3-6.8l0,0
		c-2.6,3.3-4.1,7.4-4.1,11.9c0,10.6,8.7,19.2,19.4,19.2c4.9,0,9.3-1.8,12.7-4.7l0,0c2.7-2.4,4.4-5.9,4.4-9.8c0-1.6-0.3-3.2-0.8-4.6
		l0-0.1c-1.3-2.9-4.3-5-7.8-5c-4.7,0-8.5,3.8-8.5,8.5l0,3.6c0,1.7-0.9,3.1-2.3,3.9l0,0c-1.1,0.6-2.3,0.9-3.7,0.9
		C60.7,36.8,60,36.7,59.2,36.4L59.2,36.4L59.2,36.4z"/>
</g>
</svg>
