<?xml version="1.0" encoding="utf-8"?>
<!-- Generator: Adobe Illustrator 23.0.3, SVG Export Plug-In . SVG Version: 6.00 Build 0)  -->
<svg version="1.1" xmlns="http://www.w3.org/2000/svg" xmlns:xlink="http://www.w3.org/1999/xlink" x="0px" y="0px"
	 viewBox="0 0 40 40" style="enable-background:new 0 0 40 40;" xml:space="preserve">
<style type="text/css">
	.st0{fill:#040000;}
	.st1{fill:none;}
	.st2{fill:#FFFFFF;}
	.st3{fill:none;stroke:#FFFFFF;stroke-miterlimit:10;}
	.st4{fill:#4775BA;}
</style>
<g id="Layer_1">
</g>
<g id="Layer_2">
</g>
<g id="Layer_3">
</g>
<g id="Layer_4">
</g>
<g id="Layer_5">
</g>
<g id="Layer_6">
</g>
<g id="Layer_7">
	<g>
		<path class="st4" d="M20,7.46c-5.2,0-9.42,4.23-9.42,9.42c0,0.73,0.08,1.42,0.23,2.08c0,0.02,0,0.02,0,0.02l3.85,5.66l5.34,7.9
			l6.26-8.61l2.37-3.25v-0.02h0.01c0.5-1.16,0.78-2.43,0.78-3.78C29.42,11.69,25.21,7.46,20,7.46z M20.14,22.16
			c-2.86,0-5.19-2.33-5.19-5.2c0-2.85,2.33-5.19,5.19-5.19c2.87,0,5.19,2.34,5.19,5.19C25.33,19.83,23.01,22.16,20.14,22.16z"/>
		<polygon class="st4" points="28.64,20.65 28.63,20.67 28.63,20.65 		"/>
		<line class="st4" x1="28.63" y1="20.68" x2="26.26" y2="23.93"/>
	</g>
</g>
<g id="Layer_8">
</g>
<g id="Layer_9">
</g>
</svg>
