<?xml version="1.0" encoding="utf-8"?>
<!-- Generator: Adobe Illustrator 23.0.3, SVG Export Plug-In . SVG Version: 6.00 Build 0)  -->
<svg version="1.1" xmlns="http://www.w3.org/2000/svg" xmlns:xlink="http://www.w3.org/1999/xlink" x="0px" y="0px"
	 viewBox="0 0 40 40" style="enable-background:new 0 0 40 40;" xml:space="preserve">
<style type="text/css">
	.st0{fill:#040000;}
	.st1{fill:#FFFFFF;}
	.st2{fill:none;stroke:#4775BA;stroke-miterlimit:10;}
</style>
<g id="Layer_1">
</g>
<g id="Layer_2">
</g>
<g id="Layer_3">
</g>
<g id="Layer_4">
</g>
<g id="Layer_5">
</g>
<g id="Layer_6">
</g>
<g id="Layer_7">
</g>
<g id="Layer_8">
	<g>
		<path class="st2" d="M20,11.77c-4.54,0-8.23,3.69-8.23,8.23c0,0,0.15,1.45,0.69,3.3c0.92,3.14,3.02,7.43,7.54,7.53
			c4.66,0.11,6.74-4.5,7.62-7.74C28.1,21.34,28.23,20,28.23,20C28.23,15.46,24.54,11.77,20,11.77z M25.85,20.62
			c-0.31,2.95-2.82,5.26-5.85,5.26s-5.54-2.31-5.85-5.26c-0.02-0.21-0.03-0.42-0.03-0.62c0-3.24,2.64-5.88,5.88-5.88
			s5.88,2.64,5.88,5.88C25.88,20.2,25.87,20.41,25.85,20.62z"/>
		<path class="st2" d="M11.77,20c0,0,0.15,1.45,0.69,3.3C12.02,22.29,11.77,21.17,11.77,20z"/>
		<path class="st2" d="M25.85,20.62c-0.3,3.18-2.81,7.26-5.85,7.26s-5.55-4.08-5.85-7.26c0.31,2.95,2.82,5.26,5.85,5.26
			S25.54,23.57,25.85,20.62z"/>
		<path class="st2" d="M28.23,20c0,1.09-0.21,2.14-0.61,3.09C28.1,21.34,28.23,20,28.23,20z"/>
	</g>
</g>
<g id="Layer_9">
</g>
<g id="Layer_10">
</g>
<g id="Layer_11">
</g>
<g id="Layer_12">
</g>
<g id="Layer_13">
</g>
<g id="Layer_14">
</g>
<g id="Layer_15">
</g>
<g id="Layer_16">
</g>
<g id="Layer_17">
</g>
<g id="Layer_18">
</g>
</svg>
