<?xml version="1.0" encoding="utf-8"?>
<!-- Generator: Adobe Illustrator 23.0.3, SVG Export Plug-In . SVG Version: 6.00 Build 0)  -->
<svg version="1.1" xmlns="http://www.w3.org/2000/svg" xmlns:xlink="http://www.w3.org/1999/xlink" x="0px" y="0px"
	 viewBox="0 0 40 40" style="enable-background:new 0 0 40 40;" xml:space="preserve">
<style type="text/css">
	.st0{fill:#040000;}
	.st1{fill:none;}
	.st2{fill:#FFFFFF;}
	.st3{fill:none;stroke:#FFFFFF;stroke-miterlimit:10;}
	.st4{fill:#4775BA;}
</style>
<g id="Layer_1">
</g>
<g id="Layer_2">
</g>
<g id="Layer_3">
</g>
<g id="Layer_4">
</g>
<g id="Layer_5">
</g>
<g id="Layer_6">
</g>
<g id="Layer_7">
</g>
<g id="Layer_8">
</g>
<g id="Layer_9">
	<g>
		<g>
			<path class="st4" d="M32.46,9.38v23.08H7.54V9.38h2.97c-0.05,0.25-0.08,0.52-0.08,0.8c0,1.77,1.12,3.2,2.5,3.2
				c1.38,0,2.5-1.43,2.5-3.2c0-0.28-0.03-0.55-0.08-0.8h9.25c-0.05,0.25-0.08,0.52-0.08,0.8c0,1.77,1.12,3.2,2.5,3.2
				s2.5-1.43,2.5-3.2c0-0.28-0.03-0.55-0.08-0.8H32.46z"/>
		</g>
		<rect x="9.46" y="15.38" class="st2" width="21.25" height="14.92"/>
		<g>
			<rect x="11.41" y="17.37" class="st4" width="5.03" height="5"/>
			<rect x="11.41" y="23.37" class="st4" width="5.03" height="5"/>
			<rect x="17.41" y="23.37" class="st4" width="5.03" height="5"/>
			<rect x="23.44" y="23.37" class="st4" width="5.03" height="5"/>
			<rect x="17.41" y="17.37" class="st4" width="5.03" height="5"/>
			<rect x="23.44" y="17.37" class="st4" width="5.03" height="5"/>
		</g>
		<ellipse class="st4" cx="12.93" cy="10.01" rx="1.5" ry="2.47"/>
		<ellipse class="st4" cx="26.99" cy="10.01" rx="1.5" ry="2.47"/>
	</g>
</g>
</svg>
