<?xml version="1.0" encoding="utf-8"?>
<!-- Generator: Adobe Illustrator 23.0.3, SVG Export Plug-In . SVG Version: 6.00 Build 0)  -->
<svg version="1.1" xmlns="http://www.w3.org/2000/svg" xmlns:xlink="http://www.w3.org/1999/xlink" x="0px" y="0px"
	 viewBox="0 0 40 40" style="enable-background:new 0 0 40 40;" xml:space="preserve">
<style type="text/css">
	.st0{fill:#040000;}
	.st1{fill:#FFFFFF;}
	.st2{fill:none;stroke:#4775BA;stroke-miterlimit:10;}
	.st3{font-family:'MyriadPro-Regular';}
	.st4{font-size:8.0345px;}
</style>
<g id="Layer_1">
</g>
<g id="Layer_2">
</g>
<g id="Layer_3">
</g>
<g id="Layer_4">
</g>
<g id="Layer_5">
</g>
<g id="Layer_6">
</g>
<g id="Layer_7">
</g>
<g id="Layer_8">
</g>
<g id="Layer_9">
	<g>
		<g>
			<path class="st1" d="M29.31,7.5H10.69c-1.76,0-3.19,1.43-3.19,3.19v18.62c0,1.76,1.43,3.19,3.19,3.19h18.62
				c1.76,0,3.19-1.43,3.19-3.19V10.69C32.5,8.93,31.07,7.5,29.31,7.5z M30.5,22c0,1.24-1.01,2.25-2.25,2.25h-5.96l-2.29,3l-1.94-3
				H12c-1.24,0-2.25-1.01-2.25-2.25V11.88c0-1.25,1.01-2.26,2.25-2.26h16.25c1.24,0,2.25,1.01,2.25,2.26V22z"/>
		</g>
		<text transform="matrix(1.1 0 0 1 11.625 19.4912)" class="st1 st3 st4">blog</text>
	</g>
</g>
<g id="Layer_10">
</g>
<g id="Layer_11">
</g>
<g id="Layer_12">
</g>
<g id="Layer_13">
</g>
<g id="Layer_14">
</g>
<g id="Layer_15">
</g>
<g id="Layer_16">
</g>
<g id="Layer_17">
</g>
<g id="Layer_18">
</g>
</svg>
