<?xml version="1.0" encoding="utf-8"?>
<!-- Generator: Adobe Illustrator 23.0.3, SVG Export Plug-In . SVG Version: 6.00 Build 0)  -->
<svg version="1.1" xmlns="http://www.w3.org/2000/svg" xmlns:xlink="http://www.w3.org/1999/xlink" x="0px" y="0px"
	 viewBox="0 0 40 40" style="enable-background:new 0 0 40 40;" xml:space="preserve">
<style type="text/css">
	.st0{fill:#040000;}
	.st1{fill:#FFFFFF;}
	.st2{fill:none;stroke:#4775BA;stroke-miterlimit:10;}
</style>
<g id="Layer_1">
</g>
<g id="Layer_2">
</g>
<g id="Layer_3">
</g>
<g id="Layer_4">
</g>
<g id="Layer_5">
</g>
<g id="Layer_6">
</g>
<g id="Layer_7">
</g>
<g id="Layer_8">
</g>
<g id="Layer_9">
</g>
<g id="Layer_10">
</g>
<g id="Layer_11">
</g>
<g id="Layer_12">
</g>
<g id="Layer_13">
	<g>
		<g>
			<path class="st1" d="M27.58,7.5H12.42c-2.76,0-5,2.24-5,5v15c0,2.76,2.24,5,5,5h15.17c2.76,0,5-2.24,5-5v-15
				C32.58,9.74,30.35,7.5,27.58,7.5z M30.5,25.58c0,2.76-2.24,5-5,5H14.58c-2.76,0-5-2.24-5-5V14.67c0-2.76,2.24-5,5-5H25.5
				c2.76,0,5,2.24,5,5V25.58z"/>
		</g>
		<g>
			<path class="st1" d="M20.05,13.25c-3.75,0-6.79,3.04-6.79,6.79s3.04,6.79,6.79,6.79s6.79-3.04,6.79-6.79S23.8,13.25,20.05,13.25z
				 M19.99,24.33c-2.41,0-4.36-1.95-4.36-4.35c0-2.41,1.95-4.36,4.36-4.36c2.4,0,4.35,1.95,4.35,4.36
				C24.33,22.38,22.38,24.33,19.99,24.33z"/>
		</g>
		<circle class="st1" cx="26.64" cy="13.44" r="1.73"/>
	</g>
</g>
<g id="Layer_14">
</g>
<g id="Layer_15">
</g>
<g id="Layer_16">
</g>
<g id="Layer_17">
</g>
<g id="Layer_18">
</g>
</svg>
