<?xml version="1.0" encoding="utf-8"?>
<!-- Generator: Adobe Illustrator 23.0.3, SVG Export Plug-In . SVG Version: 6.00 Build 0)  -->
<svg version="1.1" id="Layer_1" xmlns="http://www.w3.org/2000/svg" xmlns:xlink="http://www.w3.org/1999/xlink" x="0px" y="0px"
	 viewBox="0 0 40 40" style="enable-background:new 0 0 40 40;" xml:space="preserve">
<style type="text/css">
	.st0{fill:#FFFFFF;}
</style>
<g>
	<g>
		<g>
			<g>
				<g>
					<path class="st0" d="M19.8,4.5c-5,0-9,4-9,9s4,9,9,9s9-4,9-9S24.8,4.5,19.8,4.5z M20,20.2c-3.6,0-6.5-2.9-6.5-6.5
						c0-3.6,2.9-6.5,6.5-6.5s6.5,2.9,6.5,6.5C26.5,17.3,23.6,20.2,20,20.2z"/>
				</g>
				<path class="st0" d="M13.5,23.5c0,0-5.1,5.1-5.6,9.5h24.6c0,0-1.9-6.5-5.9-9.1l1.7-1.9c0,0,7.2,5.4,7.2,13.6H4.6
					c0,0,0.1-8.1,7.1-13.6L13.5,23.5z"/>
			</g>
		</g>
	</g>
</g>
<g id="Layer_3">
</g>
<g id="Layer_4">
</g>
<g id="Layer_5">
</g>
<g id="Layer_6">
</g>
<g id="Layer_7">
</g>
<g id="Layer_8">
</g>
<g id="Layer_9">
</g>
<g id="Layer_10">
</g>
<g id="Layer_11">
</g>
<g id="Layer_12">
</g>
<g id="Layer_13">
</g>
<g id="Layer_14">
</g>
<g id="Layer_15">
</g>
<g id="Layer_16">
</g>
<g id="Layer_17">
</g>
<g id="Layer_18">
</g>
</svg>
