<?xml version="1.0" encoding="utf-8"?>
<!-- Generator: Adobe Illustrator 23.0.3, SVG Export Plug-In . SVG Version: 6.00 Build 0)  -->
<svg version="1.1" id="Layer_1" xmlns="http://www.w3.org/2000/svg" xmlns:xlink="http://www.w3.org/1999/xlink" x="0px" y="0px"
	 viewBox="0 0 40 40" style="enable-background:new 0 0 40 40;" xml:space="preserve">
<style type="text/css">
	.st0{fill:#FFFFFF;}
</style>
<g id="Layer_3">
	<image style="overflow:visible;opacity:0.5;" width="38" height="38" xlink:href="6850750A.png"  transform="matrix(1 0 0 1 1 1)">
	</image>
	<g>
		<g>
			<g>
				<g>
					<g>
						<path class="st0" d="M26.2,22.5c1.2-1.8,1.8-4,1.8-6.3c0-6.5-5.2-11.7-11.7-11.7C9.8,4.5,4.6,9.8,4.6,16.3
							C4.6,22.7,9.8,28,16.3,28c2.2,0,4.3-0.6,6.1-1.7l9.4,9.2l3.6-3.6L26.2,22.5z M16.3,25.5c-5,0-9.1-4.1-9.1-9.1s4.1-9.1,9.1-9.1
							s9.1,4.1,9.1,9.1C25.4,21.4,21.3,25.5,16.3,25.5z"/>
					</g>
				</g>
			</g>
		</g>
	</g>
</g>
<g id="Layer_4">
</g>
<g id="Layer_5">
</g>
<g id="Layer_6">
</g>
<g id="Layer_7">
</g>
<g id="Layer_8">
</g>
<g id="Layer_9">
</g>
<g id="Layer_10">
</g>
<g id="Layer_11">
</g>
<g id="Layer_12">
</g>
<g id="Layer_13">
</g>
<g id="Layer_14">
</g>
<g id="Layer_15">
</g>
<g id="Layer_16">
</g>
<g id="Layer_17">
</g>
<g id="Layer_18">
</g>
</svg>
